<svg width="36" height="36" viewBox="0 0 36 36" fill="none" xmlns="http://www.w3.org/2000/svg">
<g clip-path="url(#clip0_769_413)">
<rect width="35" height="35" transform="translate(0.5 0.292969)" fill="black"/>
<path d="M32.7369 28.2976C32.2076 29.5204 31.581 30.646 30.8551 31.6808C29.8657 33.0916 29.0555 34.0681 28.4311 34.6104C27.4633 35.5005 26.4263 35.9563 25.3158 35.9822C24.5186 35.9822 23.5572 35.7554 22.4381 35.2952C21.3153 34.8372 20.2835 34.6104 19.3401 34.6104C18.3506 34.6104 17.2894 34.8372 16.1543 35.2952C15.0175 35.7554 14.1017 35.9952 13.4015 36.019C12.3366 36.0643 11.2752 35.5955 10.2157 34.6104C9.53948 34.0206 8.69367 33.0095 7.68043 31.5771C6.5933 30.0475 5.69953 28.2738 4.99934 26.2517C4.24945 24.0675 3.87354 21.9524 3.87354 19.9048C3.87354 17.5592 4.38037 15.5362 5.39556 13.8409C6.1934 12.4792 7.25482 11.405 8.58327 10.6164C9.91172 9.82788 11.3471 9.42604 12.8929 9.40033C13.7387 9.40033 14.8479 9.66196 16.2262 10.1761C17.6007 10.6921 18.4832 10.9537 18.8702 10.9537C19.1594 10.9537 20.1398 10.6478 21.8019 10.0379C23.3736 9.47228 24.7001 9.23809 25.7868 9.33034C28.7314 9.56798 30.9437 10.7288 32.415 12.8201C29.7814 14.4158 28.4787 16.6507 28.5046 19.5178C28.5284 21.7511 29.3385 23.6095 30.9308 25.085C31.6523 25.7699 32.4582 26.2992 33.3548 26.6751C33.1603 27.239 32.9551 27.7791 32.7369 28.2976ZM25.9834 1.72217C25.9834 3.47257 25.3439 5.10691 24.0692 6.61965C22.531 8.41799 20.6704 9.45715 18.6528 9.29318C18.6271 9.08318 18.6122 8.86217 18.6122 8.62993C18.6122 6.94954 19.3437 5.1512 20.6428 3.68082C21.2914 2.93633 22.1162 2.3173 23.1165 1.82349C24.1146 1.33705 25.0587 1.06804 25.9466 1.02197C25.9726 1.25597 25.9834 1.48999 25.9834 1.72215V1.72217Z" fill="white"/>
</g>
<defs>
<clipPath id="clip0_769_413">
<rect width="35" height="35" fill="white" transform="translate(0.5 0.292969)"/>
</clipPath>
</defs>
</svg>
