<svg width="35" height="36" viewBox="0 0 35 36" fill="none" xmlns="http://www.w3.org/2000/svg">
<g clip-path="url(#clip0_769_402)">
<rect width="35" height="35" transform="translate(0 0.500488)" fill="#1877F2"/>
<path d="M35 17.6074C35 7.88338 27.165 0.000488281 17.5 0.000488281C7.83501 0.000488281 0 7.88338 0 17.6074C0 26.3956 6.3995 33.6796 14.7656 35.0005V22.6969H10.3223V17.6074H14.7656V13.7284C14.7656 9.31566 17.3783 6.8782 21.3756 6.8782C23.2903 6.8782 25.293 7.22209 25.293 7.22209V11.555H23.0863C20.9123 11.555 20.2344 12.9123 20.2344 14.3047V17.6074H25.0879L24.312 22.6969H20.2344V35.0005C28.6005 33.6796 35 26.3956 35 17.6074Z" fill="white"/>
</g>
<defs>
<clipPath id="clip0_769_402">
<rect width="35" height="35" fill="white" transform="translate(0 0.500488)"/>
</clipPath>
</defs>
</svg>
