<svg width="161" height="34" viewBox="0 0 161 34" fill="none" xmlns="http://www.w3.org/2000/svg">
<path d="M47.9354 21.1207C47.9354 22.3536 47.5747 23.412 46.8611 24.304C46.1436 25.192 45.0772 25.8659 43.666 26.3178C42.2508 26.7737 40.5263 26.9996 38.4848 26.9996C36.4432 26.9996 34.5563 26.742 32.9983 26.2266C31.4444 25.7113 30.2313 24.9779 29.3632 24.0305C28.495 23.083 28.0312 21.981 27.9678 20.7283H33.1173C33.2402 21.2952 33.5414 21.7828 34.0251 22.199C34.5087 22.6113 35.139 22.9324 35.9199 23.1544C36.6969 23.3764 37.6008 23.4874 38.6315 23.4874C40.0665 23.4874 41.1527 23.3248 41.89 23.0037C42.6274 22.6826 42.996 22.195 42.996 21.5489C42.996 21.0851 42.7384 20.7323 42.223 20.4865C41.7077 20.2447 40.7642 20.0623 39.3886 19.9394L36.1776 19.6976C34.2589 19.5351 32.7327 19.214 31.6029 18.7264C30.4731 18.2427 29.6684 17.6323 29.1927 16.8949C28.717 16.1576 28.4792 15.3449 28.4792 14.4569C28.4792 13.2241 28.8637 12.1934 29.6288 11.3649C30.3978 10.5363 31.4721 9.91 32.8556 9.48583C34.2391 9.06166 35.8407 8.85156 37.6602 8.85156C39.4798 8.85156 41.1765 9.10527 42.6313 9.60872C44.0862 10.1122 45.2517 10.8099 46.1317 11.6979C47.0118 12.5858 47.5113 13.6165 47.6302 14.7899H42.4767C42.3974 14.3658 42.1675 13.9654 41.7949 13.5927C41.4222 13.2201 40.8792 12.9109 40.1735 12.6691C39.4679 12.4273 38.5482 12.3044 37.4144 12.3044C36.1419 12.3044 35.1628 12.4511 34.473 12.7444C33.7872 13.0378 33.4423 13.4778 33.4423 14.0645C33.4423 14.4688 33.6564 14.7979 34.0806 15.0476C34.5047 15.3013 35.2936 15.4757 36.4432 15.5788L40.6254 15.9118C42.4847 16.0743 43.9474 16.3796 45.0178 16.8355C46.0881 17.2913 46.8413 17.882 47.2734 18.6074C47.7095 19.3329 47.9235 20.1733 47.9235 21.1207H47.9354Z" fill="#161D6F"/>
<path d="M69.7225 21.1207C69.7225 22.3536 69.3618 23.412 68.6482 24.304C67.9307 25.192 66.8643 25.8659 65.4531 26.3178C64.0379 26.7737 62.3134 26.9996 60.2719 26.9996C58.2303 26.9996 56.3434 26.742 54.7854 26.2266C53.2315 25.7113 52.0184 24.9779 51.1503 24.0305C50.2821 23.083 49.8183 21.981 49.7549 20.7283H54.9044C55.0273 21.2952 55.3285 21.7828 55.8122 22.199C56.2958 22.6113 56.9261 22.9324 57.7071 23.1544C58.484 23.3764 59.3879 23.4874 60.4186 23.4874C61.8536 23.4874 62.9398 23.3248 63.6771 23.0037C64.4145 22.6826 64.7831 22.195 64.7831 21.5489C64.7831 21.0851 64.5255 20.7323 64.0101 20.4865C63.4948 20.2447 62.5513 20.0623 61.1757 19.9394L57.9647 19.6976C56.0461 19.5351 54.5198 19.214 53.39 18.7264C52.2602 18.2427 51.4555 17.6323 50.9798 16.8949C50.5041 16.1576 50.2663 15.3449 50.2663 14.4569C50.2663 13.2241 50.6508 12.1934 51.4159 11.3649C52.1849 10.5363 53.2592 9.91 54.6427 9.48583C56.0262 9.06166 57.6278 8.85156 59.4473 8.85156C61.2669 8.85156 62.9636 9.10527 64.4184 9.60872C65.8733 10.1122 67.0388 10.8099 67.9188 11.6979C68.7989 12.5858 69.2984 13.6165 69.4173 14.7899H64.2638C64.1845 14.3658 63.9546 13.9654 63.582 13.5927C63.2094 13.2201 62.6663 12.9109 61.9606 12.6691C61.255 12.4273 60.3353 12.3044 59.2016 12.3044C57.929 12.3044 56.9499 12.4511 56.2601 12.7444C55.5743 13.0378 55.2294 13.4778 55.2294 14.0645C55.2294 14.4688 55.4435 14.7979 55.8677 15.0476C56.2918 15.3013 57.0807 15.4757 58.2303 15.5788L62.4126 15.9118C64.2718 16.0743 65.7346 16.3796 66.8049 16.8355C67.8752 17.2913 68.6284 17.882 69.0605 18.6074C69.4966 19.3329 69.7106 20.1733 69.7106 21.1207H69.7225Z" fill="#161D6F"/>
<path d="M100.384 21.1207C100.384 22.3536 100.023 23.412 99.3094 24.304C98.5918 25.192 97.5255 25.8659 96.1142 26.3178C94.699 26.7737 92.9746 26.9996 90.933 26.9996C88.8915 26.9996 87.0045 26.742 85.4466 26.2266C83.8926 25.7113 82.6796 24.9779 81.8114 24.0305C80.9433 23.083 80.4794 21.981 80.416 20.7283H85.5655C85.6884 21.2952 85.9897 21.7828 86.4733 22.199C86.9569 22.6113 87.5872 22.9324 88.3682 23.1544C89.1452 23.3764 90.049 23.4874 91.0797 23.4874C92.5147 23.4874 93.6009 23.3248 94.3383 23.0037C95.0756 22.6826 95.4443 22.195 95.4443 21.5489C95.4443 21.0851 95.1866 20.7323 94.6713 20.4865C94.1559 20.2407 93.2124 20.0623 91.8369 19.9394L88.6259 19.6976C86.7072 19.5351 85.181 19.214 84.0512 18.7264C82.9214 18.2427 82.1167 17.6323 81.641 16.8949C81.1652 16.1576 80.9274 15.3449 80.9274 14.4569C80.9274 13.2241 81.3119 12.1934 82.077 11.3649C82.8461 10.5363 83.9204 9.91 85.3039 9.48583C86.6874 9.06166 88.2889 8.85156 90.1085 8.85156C91.928 8.85156 93.6247 9.10527 95.0796 9.60872C96.5344 10.1122 97.6999 10.8099 98.58 11.6979C99.46 12.5858 99.9595 13.6165 100.078 14.7899H94.925C94.8457 14.3658 94.6158 13.9654 94.2431 13.5927C93.8705 13.2201 93.3274 12.9109 92.6218 12.6691C91.9122 12.4273 90.9965 12.3044 89.8627 12.3044C88.5902 12.3044 87.611 12.4511 86.9213 12.7444C86.2355 13.0378 85.8906 13.4778 85.8906 14.0645C85.8906 14.4688 86.1046 14.7979 86.5288 15.0476C86.953 15.3013 87.7418 15.4757 88.8915 15.5788L93.0737 15.9118C94.9329 16.0743 96.3957 16.3796 97.466 16.8355C98.5363 17.2913 99.2895 17.882 99.7216 18.6074C100.158 19.3329 100.372 20.1733 100.372 21.1207H100.384Z" fill="#161D6F"/>
<path d="M101.324 13.1223V10.8785L104.932 9.6972L107.084 4.75781H109.994V9.30474H117.629V13.1223H109.994V19.3936C109.994 20.7256 110.271 21.6611 110.826 22.1963C111.381 22.7315 112.345 23.001 113.72 23.001C114.588 23.001 115.358 22.9218 116.024 22.7592C116.689 22.5967 117.328 22.3668 117.934 22.0615V26.0019C117.348 26.2438 116.571 26.4737 115.599 26.6838C114.628 26.8978 113.629 27.0009 112.598 27.0009C110.799 27.0009 109.34 26.7115 108.218 26.1367C107.096 25.5619 106.268 24.7572 105.732 23.7265C105.197 22.6958 104.928 21.4946 104.928 20.1191V13.1183H101.32L101.324 13.1223Z" fill="#161D6F"/>
<path d="M128.175 14.4283V10.6108H144.297V14.4283H128.175ZM140.84 6.57924C139.425 6.57924 138.406 6.85673 137.78 7.41172C137.154 7.96671 136.841 8.86262 136.841 10.0915V26.5469H131.778V10.4285C131.778 8.85469 132.087 7.49497 132.702 6.35328C133.316 5.21159 134.256 4.32758 135.52 3.70123C136.781 3.07489 138.355 2.76172 140.234 2.76172C141.102 2.76172 141.879 2.82911 142.569 2.95993C143.255 3.09075 143.952 3.26914 144.658 3.49113V7.30865C144.071 7.06683 143.465 6.88448 142.838 6.76159C142.212 6.6387 141.546 6.57924 140.836 6.57924H140.84Z" fill="#6B48FF"/>
<path d="M146.331 26.7556L138.724 10.6055H144.301L151.27 26.7556H146.331ZM145.237 33.3005C144.107 33.3005 143.084 33.1578 142.176 32.8763C141.269 32.5949 140.408 32.1786 139.6 31.6355V28.0004C140.448 28.5474 141.257 28.9399 142.026 29.1817C142.795 29.4235 143.643 29.5464 144.571 29.5464C145.399 29.5464 146.137 29.3601 146.783 28.9874C147.429 28.6148 147.964 27.9528 148.388 27.0014L155.571 10.6094H160.935L152.329 28.6386C151.802 29.7684 151.167 30.6802 150.418 31.366C149.669 32.0518 148.856 32.5473 147.98 32.8525C147.1 33.1538 146.188 33.3084 145.237 33.3084V33.3005Z" fill="#6B48FF"/>
<path d="M72.6279 9.11719V26.5438H77.6902V9.11719L75.1452 9.60082L72.6279 9.11719Z" fill="#161D6F"/>
<path d="M72.9169 6.62092C73.4917 7.09662 74.237 7.33447 75.1448 7.33447C76.0526 7.33447 76.8217 7.09662 77.3885 6.62092C77.9554 6.14521 78.2369 5.50698 78.2369 4.69828C78.2369 3.88959 77.9554 3.2791 77.3885 2.8034C76.8217 2.3277 76.0764 2.08984 75.1448 2.08984C74.2132 2.08984 73.4917 2.3277 72.9169 2.8034C72.3421 3.2791 72.0527 3.90941 72.0527 4.69828C72.0527 5.48716 72.3421 6.14918 72.9169 6.62092ZM75.1607 3.1245C76.0368 3.1245 76.7463 3.83409 76.7463 4.71018C76.7463 5.58626 76.0368 6.29585 75.1607 6.29585C74.2846 6.29585 73.575 5.58626 73.575 4.71018C73.575 3.83409 74.2846 3.1245 75.1607 3.1245Z" fill="#6B48FF"/>
<path d="M120.917 6.62092C121.492 7.09662 122.237 7.33447 123.145 7.33447C124.053 7.33447 124.822 7.09662 125.389 6.62092C125.955 6.14521 126.237 5.50698 126.237 4.69828C126.237 3.88959 125.955 3.2791 125.389 2.8034C124.822 2.3277 124.076 2.08984 123.145 2.08984C122.213 2.08984 121.492 2.3277 120.917 2.8034C120.342 3.2791 120.053 3.90941 120.053 4.69828C120.053 5.48716 120.342 6.14918 120.917 6.62092ZM123.161 3.1245C124.037 3.1245 124.746 3.83409 124.746 4.71018C124.746 5.58626 124.037 6.29585 123.161 6.29585C122.285 6.29585 121.575 5.58626 121.575 4.71018C121.575 3.83409 122.285 3.1245 123.161 3.1245Z" fill="#6B48FF"/>
<path d="M120.631 9.11743V26.544H125.689V9.11743L123.144 9.60106L120.631 9.11743Z" fill="#161D6F"/>
<path d="M22.3937 26.5443H27.8802L16.7963 3.73828L13.9817 7.67473L11.1235 3.73828L0 26.5443H5.48644L7.64297 21.7555H20.2332L22.3898 26.5443H22.3937ZM9.52992 17.5733L13.9421 7.78969L18.3542 17.5733H9.53389H9.52992Z" fill="#161D6F"/>
<path d="M11.738 4.63264C12.3128 5.10834 13.0581 7.76039 13.9659 7.76039C14.8737 7.76039 15.6427 5.10834 16.2096 4.63264C16.7765 4.15693 17.0579 3.5187 17.0579 2.71C17.0579 1.90131 16.7765 1.29082 16.2096 0.815117C15.6427 0.339414 14.8974 0.101562 13.9659 0.101562C13.0343 0.101562 12.3128 0.339414 11.738 0.815117C11.1632 1.29082 10.8738 1.92113 10.8738 2.71C10.8738 3.49888 11.1632 4.1609 11.738 4.63264ZM13.9777 1.14018C14.8538 1.14018 15.5634 1.84977 15.5634 2.72586C15.5634 3.60195 14.8538 6.72573 13.9777 6.72573C13.1017 6.72573 12.3921 3.60195 12.3921 2.72586C12.3921 1.84977 13.1017 1.14018 13.9777 1.14018Z" fill="#6B48FF"/>
</svg>
