<svg width="35" height="36" viewBox="0 0 35 36" fill="none" xmlns="http://www.w3.org/2000/svg">
<rect width="35" height="35" transform="translate(0 0.393555)" fill="white"/>
<path fill-rule="evenodd" clip-rule="evenodd" d="M34.6963 19.0729C34.6963 17.8654 34.5902 16.7043 34.3933 15.5896H18.6963V22.1769H27.666C27.2796 24.3056 26.1054 26.1092 24.3402 27.3167V31.5896H29.7266C32.8781 28.6249 34.6963 24.2592 34.6963 19.0729Z" fill="#4285F4"/>
<path fill-rule="evenodd" clip-rule="evenodd" d="M18.2083 35.5896C22.895 35.5896 26.8243 34.0419 29.6963 31.4022L24.0864 27.0655C22.5321 28.1025 20.5437 28.7153 18.2083 28.7153C13.6872 28.7153 9.86052 25.6749 8.49553 21.5896H2.69629V26.0677C5.55251 31.7164 11.4228 35.5896 18.2083 35.5896Z" fill="#34A853"/>
<path fill-rule="evenodd" clip-rule="evenodd" d="M8.69629 21.9742C8.33303 20.9054 8.12663 19.7637 8.12663 18.5896C8.12663 17.4155 8.33303 16.2738 8.69629 15.205V10.5896H2.62818C1.39804 12.9945 0.696289 15.7151 0.696289 18.5896C0.696289 21.4641 1.39804 24.1847 2.62818 26.5896L8.69629 21.9742Z" fill="#FBBC05"/>
<path fill-rule="evenodd" clip-rule="evenodd" d="M18.1361 8.4639C20.6727 8.4639 22.9502 9.33595 24.7408 11.0486L29.6963 6.09128C26.7041 3.30228 22.7931 1.5896 18.1361 1.5896C11.3822 1.5896 5.53922 5.46278 2.69629 11.1115L8.46854 15.5896C9.82718 11.5043 13.6361 8.4639 18.1361 8.4639Z" fill="#EA4335"/>
</svg>
